<?xml version="1.0" standalone="no"?>
<!DOCTYPE svg PUBLIC "-//W3C//DTD SVG 1.1//EN" "http://www.w3.org/Graphics/SVG/1.1/DTD/svg11.dtd" >
<svg xmlns="http://www.w3.org/2000/svg">
<metadata>
This is a custom SVG webfont generated by Font Squirrel.
Copyright   : Copyright 19901992 as an unpublished work by Bitstream Inc  All rights reserved  Confidential
Foundry     : as an unpublished work by Bitstream Inc
</metadata>
<defs>
<font id="webfont0SMUYK9A" horiz-adv-x="1034" >
<font-face units-per-em="2048" ascent="1638" descent="-410" />
<missing-glyph horiz-adv-x="516" />
<glyph unicode=" "  horiz-adv-x="516" />
<glyph unicode="&#x09;" horiz-adv-x="516" />
<glyph unicode="&#xa0;" horiz-adv-x="516" />
<glyph unicode="!" horiz-adv-x="516" d="M131 109q0 53 36 90t89 37t90 -37t37 -90t-37 -90t-90 -37t-89 37t-36 90zM242 434q-16 41 -35 112.5t-34 167t-24.5 212t-9.5 245.5q0 127 27 188.5t88 61.5t89 -57t28 -180q0 -203 -28 -396.5t-75 -353.5h-26z" />
<glyph unicode="&#x22;" horiz-adv-x="614" d="M524 881h-139v555h139v-555zM229 881h-139v555h139v-555z" />
<glyph unicode="#" horiz-adv-x="1574" d="M709 858l-93 -264h261l92 264h-260zM762 1004h256l164 454h164l-160 -454h301l-51 -146h-303l-93 -264h322l-51 -145h-322l-162 -453h-165l161 453h-258l-162 -453h-165l159 453h-309l53 145h310l92 264h-330l51 146h332l162 454h166z" />
<glyph unicode="$" d="M457 1202q-98 -2 -152.5 -48t-54.5 -124q0 -133 207 -188v360zM584 205q94 6 144 51t50 121q0 150 -194 209v-381zM47 416q225 -197 410 -209v428q-401 100 -402 381q0 74 28 137.5t80 112.5t125.5 80.5t168.5 39.5v152h127v-149q178 -12 329 -121v-221 q-193 150 -329 155v-397q201 -61 301 -164.5t100 -245.5q0 -166 -101.5 -265t-299.5 -124v-225h-127v223h-15q-98 0 -193 39t-202 111v262z" />
<glyph unicode="%" horiz-adv-x="1964" d="M1253 391q0 -49 18.5 -92t50.5 -73.5t75 -49t92 -18.5t91 18.5t74 49t50 73.5t18 92t-18 92t-50 75t-74 50.5t-91 18.5t-92 -18.5t-75 -50.5t-50.5 -75t-18.5 -92zM1071 391q0 88 33 164t89 132t132 89t164 33q86 0 161.5 -33t132 -89t89.5 -132t33 -164 q0 -86 -33 -161.5t-89.5 -132t-132 -89.5t-161.5 -33q-88 0 -164 33t-132 89.5t-89 132t-33 161.5zM1370 1423h168l-948 -1448h-164zM240 1006q0 -49 18 -92.5t49 -75t74 -50t92 -18.5t91 18.5t74 50t50.5 74.5t18.5 93q0 49 -18.5 92t-50.5 73.5t-74 49t-91 18.5t-92 -18.5 t-74 -49t-49 -73.5t-18 -92zM57 1004q0 88 32 163.5t88 132t132 89t164 32.5q86 0 163 -32.5t133 -89t89 -132t33 -163.5q0 -86 -33 -162t-89 -132.5t-133 -89t-163 -32.5q-88 0 -164 32.5t-132 89t-88 132.5t-32 162z" />
<glyph unicode="&#x26;" horiz-adv-x="1335" d="M535 621q-131 -78 -198 -143.5t-67 -137.5q0 -76 51.5 -122t139.5 -46q70 0 143.5 43t165.5 125zM588 852q100 66 149 125t49 131q0 66 -47 110t-125 44q-74 0 -122 -44t-48 -108q0 -47 35 -113.5t109 -144.5zM1059 0l-168 201q-104 -115 -211 -170.5t-236 -55.5 q-90 0 -160.5 26t-119.5 73t-76 111.5t-27 142.5q0 63 21.5 118.5t66 106.5t111 100t154.5 101q-84 84 -124 165.5t-40 174.5q0 74 25.5 134t72.5 104t113.5 67.5t148.5 23.5t148.5 -23.5t114 -64.5t73 -99t25.5 -126q0 -119 -64.5 -210t-199.5 -177l204 -238 q43 47 80 106.5t72 129.5h209q-76 -211 -234 -383l281 -338h-260z" />
<glyph unicode="'" horiz-adv-x="317" d="M229 881h-139v555h139v-555z" />
<glyph unicode="(" horiz-adv-x="645" d="M498 -463q-197 229 -292 454.5t-95 479.5q0 252 103 481.5t312 468.5h113q-354 -436 -354 -960q0 -457 329 -924h-116z" />
<glyph unicode=")" horiz-adv-x="645" d="M29 -463q332 469 331 924q0 524 -354 960h111q209 -240 313.5 -469t104.5 -481q0 -254 -95.5 -479t-292.5 -455h-118z" />
<glyph unicode="*" horiz-adv-x="905" d="M791 1253l-283 -217l352 47v-139l-352 47l283 -217l-99 -98l-217 282l47 -352h-139l45 352l-215 -282l-98 98l282 217l-352 -47v139l352 -45l-282 215l98 99l215 -283l-45 352h139l-47 -352l217 283z" />
<glyph unicode="+" horiz-adv-x="1705" d="M924 680h528v-139h-528v-541h-142v541h-528v139h528v541h142v-541z" />
<glyph unicode="," horiz-adv-x="516" d="M221 -18q-88 45 -88 122q0 51 34 85t81 34q59 0 97 -50t38 -140q0 -109 -61.5 -185.5t-178.5 -115.5l-2 37q80 68 80 186v27z" />
<glyph unicode="-" horiz-adv-x="692" d="M84 545h524v-166h-524v166z" />
<glyph unicode="." horiz-adv-x="516" d="M137 104q0 51 35 86t86 35t86 -34.5t35 -86.5q0 -51 -35 -85.5t-86 -34.5t-86 34.5t-35 85.5z" />
<glyph unicode="/" horiz-adv-x="577" d="M-51 -190l483 1611h143l-487 -1611h-139z" />
<glyph unicode="0" d="M258 698q0 -266 68.5 -399t189.5 -133t189.5 133t68.5 399t-68.5 400.5t-189.5 134.5t-189.5 -134.5t-68.5 -400.5zM57 698q0 174 34 308.5t95.5 226.5t145.5 140t184 48t184 -48t145.5 -140t95.5 -226.5t34 -308.5t-34 -308t-95.5 -226t-145.5 -140.5t-184 -48.5 t-184 48.5t-145.5 140.5t-95.5 226t-34 308z" />
<glyph unicode="1" d="M418 1399h198v-1399h-198v1399z" />
<glyph unicode="2" d="M70 0q135 199 239.5 326t157.5 202q96 137 144 248t48 201q0 117 -64.5 185.5t-174.5 68.5q-152 0 -314 -172v239q170 125 340 125q92 0 168 -30.5t131.5 -86t85 -134t29.5 -173.5q0 -90 -28.5 -181t-84 -188.5t-135.5 -202.5t-182 -224h528v-203h-888z" />
<glyph unicode="3" d="M135 270q166 -86 301 -86q111 0 171.5 60.5t60.5 163.5q0 213 -297 231v176q135 0 208.5 61.5t73.5 159.5q0 88 -68.5 146.5t-187.5 58.5q-55 0 -112.5 -17.5t-122.5 -45.5v180q70 33 136.5 49t133.5 16q96 0 173 -26.5t131.5 -75.5t84 -116.5t29.5 -149.5 q0 -199 -168 -307q96 -47 147.5 -133.5t51.5 -200.5q0 -96 -32 -176t-91.5 -138.5t-142.5 -91.5t-185 -33q-78 0 -148.5 20.5t-146.5 61.5v213z" />
<glyph unicode="4" d="M610 467h-598v84l705 870h86v-788h155v-166h-155v-467h-193v467zM616 1055l-335 -422h329z" />
<glyph unicode="5" d="M96 276q80 -49 159 -72.5t153 -23.5q135 0 211.5 68.5t76.5 179.5q0 125 -92 195.5t-272 70.5q-55 0 -142 -22l25 727h616v-170h-442l-14 -359h31q115 0 207 -31.5t155 -89t97 -138.5t34 -179q0 -96 -36 -180t-100.5 -145.5t-154.5 -96.5t-196 -35q-139 0 -316 95v206z " />
<glyph unicode="6" d="M291 541q-10 -51 -10 -86q0 -133 68.5 -212t178.5 -79q100 0 162 63.5t62 167.5q0 106 -64.5 172t-163.5 66q-135 0 -233 -92zM326 756q135 66 231 65q86 0 160 -31.5t126 -87t81.5 -132t29.5 -164.5q0 -92 -32.5 -171t-91 -136.5t-140.5 -89.5t-178 -32q-98 0 -178 35 t-137.5 99.5t-89 156.5t-31.5 205q0 276 143 516t430 432l109 -137q-168 -117 -276.5 -242.5t-155.5 -285.5z" />
<glyph unicode="7" d="M719 1217h-596v182h893l-635 -1434l-172 78z" />
<glyph unicode="8" d="M262 723q-78 51 -119 131t-41 180q0 84 31 156t87 124t134 80.5t172 28.5q88 0 163 -29.5t128 -81.5t84 -123t31 -153q0 -102 -42 -184t-118 -129q96 -35 150.5 -121t54.5 -203q0 -90 -34 -167.5t-95.5 -134t-146.5 -89.5t-185 -33q-102 0 -187 33t-145.5 90.5t-94.5 135 t-34 167.5q0 117 54.5 202t152.5 120zM745 1030q0 96 -62 153.5t-165 57.5q-102 0 -163.5 -58.5t-61.5 -150.5q0 -51 18.5 -93t49 -72.5t70.5 -47t83 -16.5q49 0 91 16.5t73 45t49 70.5t18 95zM268 397q0 -100 66.5 -166.5t173.5 -66.5q117 0 185.5 65.5t68.5 169.5 q0 102 -66.5 163t-177.5 61q-115 0 -182.5 -64t-67.5 -162z" />
<glyph unicode="9" d="M735 858l8 44q4 22 5 42q0 133 -69 213t-179 80q-100 0 -162 -63.5t-62 -167.5q0 -106 63.5 -172t162.5 -66q137 0 233 90zM700 643q-135 -66 -229 -65q-86 0 -159.5 31.5t-127 87t-83 131t-29.5 165.5q0 92 32.5 171t91 136.5t140.5 90t178 32.5q98 0 178 -34.5 t137.5 -99t89 -157t31.5 -204.5q0 -279 -143 -519.5t-430 -431.5l-109 138q354 241 432 528z" />
<glyph unicode=":" horiz-adv-x="516" d="M137 102q0 51 35 86t86 35t86 -34.5t35 -86.5q0 -51 -35 -85.5t-86 -34.5t-86 34.5t-35 85.5zM137 825q0 51 35 85t86 34t86 -33.5t35 -85.5q0 -51 -35 -85.5t-86 -34.5t-86 34.5t-35 85.5z" />
<glyph unicode=";" horiz-adv-x="516" d="M139 823q0 51 34 86t85 35t86 -35t35 -86t-35 -86t-86 -35t-85 35t-34 86zM221 -18q-88 45 -88 122q0 51 34 85t81 34q59 0 97 -50t38 -140q0 -109 -61.5 -185.5t-178.5 -115.5l-2 37q80 68 80 186v27z" />
<glyph unicode="&#x37e;" horiz-adv-x="516" d="M139 823q0 51 34 86t85 35t86 -35t35 -86t-35 -86t-86 -35t-85 35t-34 86zM221 -18q-88 45 -88 122q0 51 34 85t81 34q59 0 97 -50t38 -140q0 -109 -61.5 -185.5t-178.5 -115.5l-2 37q80 68 80 186v27z" />
<glyph unicode="&#x3c;" horiz-adv-x="1705" d="M473 610l969 -393v-154l-1178 484v129l1178 483v-153z" />
<glyph unicode="=" horiz-adv-x="1705" d="M1452 342h-1198v139h1198v-139zM1452 739h-1198v140h1198v-140z" />
<glyph unicode="&#x3e;" horiz-adv-x="1705" d="M1442 547l-1178 -484v154l971 393l-971 396v153l1178 -483v-129z" />
<glyph unicode="?" horiz-adv-x="641" d="M410 106q0 -53 -36 -88.5t-89 -35.5t-89 35.5t-36 88.5t35.5 88t89.5 35q53 0 89 -35t36 -88zM88 1368q100 55 215 55q66 0 122 -22.5t96 -64.5t62.5 -98t22.5 -124q0 -96 -35.5 -170t-99.5 -153l-70.5 -86t-60.5 -74t-42 -70t-15 -72q0 -33 12 -65l-47 -21 q-82 84 -82 187q0 57 21.5 108.5t56.5 108.5l51 78q25 37 44 71.5t31.5 68.5t12.5 69q0 59 -36 95t-95 36q-41 0 -91 -19.5t-112 -54.5z" />
<glyph unicode="@" horiz-adv-x="2048" d="M1341 969h132l-146 -576q-8 -33 -8 -59q0 -94 100 -94q47 0 101.5 25.5t107.5 76.5q78 74 124 183.5t46 236.5t-49 234.5t-139 184t-217 119.5t-285 43q-264 0 -457 -114q-193 -115 -297 -299.5t-104 -409.5q0 -178 61.5 -308t192.5 -230q98 -74 232 -117t292 -43 q170 0 329 49t292 141l55 -82q-297 -223 -664 -223q-383 0 -628 187q-305 236 -306 628q0 166 51.5 312.5t151.5 269.5q145 178 349 270t458 92q172 0 316.5 -47t246.5 -125q129 -100 197 -230t68 -284q0 -176 -62.5 -315t-185.5 -236q-70 -55 -151 -83.5t-165 -28.5 q-201 0 -200 157v19q-109 -174 -301 -174q-154 0 -234 85t-80 247q0 119 37 220t101.5 175t151.5 116t187 42q170 0 242 -150zM1249 711q-16 90 -68.5 137t-129.5 47q-70 0 -129.5 -35t-103.5 -95t-68.5 -142t-24.5 -177q0 -106 48 -162.5t138 -56.5q96 0 173 67.5 t106 180.5z" />
<glyph unicode="A" horiz-adv-x="1275" d="M852 592l-221 504l-215 -504h436zM561 1399h146l614 -1399h-207l-180 412h-596l-178 -412h-205z" />
<glyph unicode="B" horiz-adv-x="1185" d="M348 182h266q141 0 211 49.5t70 163.5q0 117 -77 169t-236 52h-234v-434zM150 1399h409q213 0 324.5 -95.5t111.5 -269.5q0 -215 -207 -291q154 -37 237 -132t83 -230q0 -86 -32 -155.5t-93 -120t-149.5 -78t-198.5 -27.5h-485v1399zM483 799q301 0 301 223 q0 106 -60 151.5t-185 45.5h-191v-420h135z" />
<glyph unicode="C" horiz-adv-x="1421" d="M1341 106q-250 -131 -503 -131q-240 0 -435 125q-158 102 -243.5 260t-85.5 345q0 141 57 273t162 232q223 211 559 211q145 0 262 -33.5t215 -78.5v-217q-129 70 -244.5 105.5t-232.5 35.5q-125 0 -229.5 -42t-179 -113.5t-115.5 -169t-41 -210.5t41 -210t114.5 -168.5 t175 -112.5t222.5 -41q244 0 501 166v-226z" />
<glyph unicode="D" horiz-adv-x="1517" d="M348 1208v-1018h316q133 0 236.5 37t174 103.5t107.5 160t37 207.5q0 115 -37 209t-107.5 161t-174 103.5t-236.5 36.5h-316zM664 1399q141 0 254.5 -25.5t216.5 -95.5q141 -96 219 -245.5t78 -332.5q0 -182 -78 -332.5t-219 -246.5q-98 -68 -214 -94.5t-257 -26.5h-514 v1399h514z" />
<glyph unicode="E" horiz-adv-x="1114" d="M150 1399h841v-178h-643v-424h625v-181h-625v-436h664v-180h-862v1399z" />
<glyph unicode="F" horiz-adv-x="1030" d="M150 1399h796v-178h-598v-414h580v-180h-580v-627h-198v1399z" />
<glyph unicode="G" horiz-adv-x="1449" d="M1341 94q-135 -59 -257.5 -89t-239.5 -30q-254 0 -441 123q-158 102 -243.5 260t-85.5 347q0 141 57 273t162 232q113 109 251 160t310 51q231 0 475 -112v-217q-129 70 -244.5 105.5t-232.5 35.5q-125 0 -229.5 -42t-179 -113.5t-115.5 -169t-41 -210.5t41 -210 t114.5 -168.5t176 -112.5t223.5 -41q141 0 293 63v271h-263v186h469v-592z" />
<glyph unicode="H" horiz-adv-x="1503" d="M150 1399h198v-602h807v602h199v-1399h-199v608h-807v-608h-198v1399z" />
<glyph unicode="I" horiz-adv-x="512" d="M156 1399h200v-1399h-200v1399z" />
<glyph unicode="J" horiz-adv-x="516" d="M-94 -287q78 0 127 13.5t77.5 45t40 84t11.5 130.5v1413h198v-1362q0 -74 -3 -136.5t-16 -115.5t-40 -98t-74 -82t-116.5 -56.5t-155.5 -19.5h-35l-45 184h31z" />
<glyph unicode="K" horiz-adv-x="1251" d="M156 1399h200v-629l584 629h252l-608 -656l725 -743h-279l-674 692v-692h-200v1399z" />
<glyph unicode="L" d="M156 1399h198v-1219h666v-180h-864v1399z" />
<glyph unicode="M" horiz-adv-x="1654" d="M150 1399h174l503 -588l504 588h174v-1399h-194v1092l-484 -564l-483 564v-1092h-194v1399z" />
<glyph unicode="N" horiz-adv-x="1593" d="M150 1399h174l921 -1086v1086h199v-1399h-178l-918 1087v-1087h-198v1399z" />
<glyph unicode="O" horiz-adv-x="1640" d="M287 698q0 -109 40 -205t115 -171q74 -76 172.5 -116t204.5 -40q223 0 379 156q76 76 116 172t40 204q0 109 -40 204t-118 173q-76 78 -172 118t-205 40q-106 0 -202.5 -41t-174.5 -117q-76 -74 -115.5 -171t-39.5 -206zM74 705q0 141 57 272t162 233q109 104 243 157.5 t283 53.5q152 0 288 -53t241 -158q219 -213 219 -518q0 -141 -55.5 -272t-161.5 -234q-221 -211 -531 -211q-150 0 -286 54.5t-240 156.5q-109 104 -164 236.5t-55 282.5z" />
<glyph unicode="P" horiz-adv-x="1110" d="M565 780q141 0 209 50.5t68 168.5q0 119 -67.5 169.5t-209.5 50.5h-217v-439h217zM150 1399h436q223 0 344 -106.5t121 -293.5q0 -186 -121 -291.5t-344 -105.5h-238v-602h-198v1399z" />
<glyph unicode="Q" horiz-adv-x="1640" d="M287 698q0 -109 40 -205t115 -171q74 -76 172.5 -116t204.5 -40q223 0 379 156q76 76 116 172t40 204q0 109 -40 204t-118 173q-76 78 -172 118t-205 40q-106 0 -202.5 -41t-174.5 -117q-76 -74 -115.5 -171t-39.5 -206zM635 0q-129 31 -232.5 98.5t-177 159.5 t-112.5 206t-39 241q0 141 57 272t162 233q109 104 243 157.5t283 53.5q152 0 288 -53t241 -158q219 -213 219 -518q0 -121 -38 -229.5t-109.5 -199.5t-176 -158.5t-235.5 -106.5q102 -51 196 -77.5t191 -26.5q57 0 139 16l8 -21l-190 -165q-12 -2 -24 -3h-23 q-133 0 -302 69t-368 210z" />
<glyph unicode="R" horiz-adv-x="1157" d="M147 1399h410q217 0 329.5 -100.5t112.5 -282.5q0 -137 -62.5 -221t-199.5 -127q47 -25 79 -65t67 -91l340 -512h-242l-240 367l-75 109q-35 48 -73 81t-82 50.5t-103 17.5h-60v-625h-201v1399zM514 793q279 0 279 219q0 119 -69 168t-210 49h-166v-436h166z" />
<glyph unicode="S" horiz-adv-x="944" d="M78 373q92 -104 177 -154.5t189 -50.5t164 48t60 132q0 43 -15.5 77t-45 64.5t-72.5 60.5l-101 66l-155 105q-68 47 -113 95t-67.5 104.5t-22.5 132.5q0 80 29.5 148.5t84 117.5t131 77.5t168.5 28.5q160 0 318 -96v-227q-86 70 -164 105.5t-162 35.5q-98 0 -155.5 -47 t-57.5 -119q0 -41 19.5 -74.5t55.5 -65.5t87 -65l115 -71q76 -47 137 -91t102 -96.5t63.5 -117t22.5 -152.5q0 -78 -29.5 -145.5t-84 -116.5t-131 -78t-168.5 -29q-111 0 -202 31t-177 103v264z" />
<glyph unicode="T" horiz-adv-x="1255" d="M528 1217h-514v182h1227v-182h-514v-1217h-199v1217z" />
<glyph unicode="U" horiz-adv-x="1488" d="M340 1399v-803q0 -94 8 -164t55 -123q123 -145 340 -145q92 0 166 24.5t127.5 69.5t82 108.5t28.5 139.5v893h199v-899q0 -117 -43 -213.5t-123 -165t-190.5 -107.5t-246.5 -39q-162 0 -288.5 56.5t-214.5 165.5q-35 43 -55.5 88t-30 93t-11.5 100t-2 110v811h199z" />
<glyph unicode="V" horiz-adv-x="1214" d="M-41 1399h209l436 -998l445 998h206l-628 -1409h-52z" />
<glyph unicode="W" horiz-adv-x="1906" d="M-35 1399h207l342 -955l377 955h127l373 -957l348 957h203l-527 -1409h-45l-418 1077l-422 -1077h-47z" />
<glyph unicode="X" horiz-adv-x="1470" d="M623 741l-555 658h247l433 -512l440 512h248l-566 -658l619 -741h-244l-502 598l-518 -598h-245z" />
<glyph unicode="Y" horiz-adv-x="1193" d="M485 700l-540 699h237l408 -531l418 531h241l-561 -709v-690h-203v700z" />
<glyph unicode="Z" horiz-adv-x="1304" d="M934 1223h-854v176h1200v-23l-903 -1204h903v-172h-1266z" />
<glyph unicode="[" horiz-adv-x="641" d="M174 1399h449v-139h-279v-1549h279v-139h-449v1827z" />
<glyph unicode="\" horiz-adv-x="577" d="M4 1421h143l482 -1611h-137z" />
<glyph unicode="]" horiz-adv-x="641" d="M469 -428h-449v139h281v1549h-281v139h449v-1827z" />
<glyph unicode="^" horiz-adv-x="2048" d="M1626 901h-180l-422 420l-424 -420h-180l510 557h186z" />
<glyph unicode="_" horiz-adv-x="1024" d="M1024 -483h-1024v143h1024v-143z" />
<glyph unicode="`" horiz-adv-x="1024" d="M543 1055l-281 348h178l209 -348h-106z" />
<glyph unicode="a" horiz-adv-x="886" d="M571 459q-166 -51 -246.5 -99.5t-80.5 -121.5q0 -57 36.5 -88t102.5 -31q98 0 188 69v271zM578 76q-68 -47 -130.5 -69.5t-136.5 -22.5q-129 0 -196.5 60t-67.5 163q0 195 305 297l219 74q2 10 2 19v19q0 84 -40.5 120t-133.5 36q-158 0 -323 -129v182q72 59 160 88 t186 29q184 0 262 -80t78 -252v-391q0 -45 7 -67.5t30 -22.5t45 14.5t51 36.5v-112q-98 -84 -207 -84q-53 0 -79.5 21.5t-30.5 70.5z" />
<glyph unicode="b" horiz-adv-x="1058" d="M307 186q98 -37 187 -36q147 0 227 80.5t80 230.5q0 147 -78 230t-211 83q-104 0 -205 -69v-519zM121 1399h186v-527q102 72 244 72q100 0 182 -33.5t140.5 -96t91 -152t32.5 -199.5q0 -229 -135 -356t-389 -127q-88 0 -174 16t-178 47v1356z" />
<glyph unicode="c" horiz-adv-x="901" d="M840 31q-139 -49 -267 -49q-115 0 -210 35.5t-162.5 100t-105.5 152.5t-38 193q0 100 38 188t105.5 152.5t161 102.5t203.5 38q133 0 260 -57v-197q-127 76 -254 76q-74 0 -133 -22.5t-101 -63.5t-64.5 -96.5t-22.5 -120.5q0 -66 22.5 -122t65.5 -97t104.5 -64.5 t137.5 -23.5q135 0 260 63v-188z" />
<glyph unicode="d" horiz-adv-x="1058" d="M754 725q-88 63 -193 63q-141 0 -222 -85t-81 -238q0 -154 81 -239t222 -85q104 0 193 64v520zM754 51q-53 -37 -111.5 -53t-128.5 -16q-98 0 -182 34.5t-143.5 98t-93.5 151.5t-34 197q0 106 34 195.5t93.5 152.5t143.5 98t182 35q137 0 240 -72v527h184v-1399h-184v51z " />
<glyph unicode="e" horiz-adv-x="999" d="M928 98q-182 -119 -391 -118q-111 0 -200 35.5t-150.5 101t-95.5 158t-34 202.5q0 102 33 188.5t92.5 147.5t142.5 95t185 34q98 0 178 -32.5t137.5 -96t88 -154t30.5 -202.5v-27h-692q8 -133 86 -205.5t209 -72.5q176 0 381 131v-185zM741 561q-10 102 -73.5 162.5 t-159.5 60.5q-215 0 -256 -223h489z" />
<glyph unicode="f" horiz-adv-x="540" d="M160 0v764h-121v160h121v84q0 86 6 150.5t39 117.5q41 66 110.5 101.5t157.5 35.5q29 0 64.5 -6t83.5 -16v-162q-76 16 -117 16q-90 0 -122 -50t-32 -159v-112h123v-160h-123v-764h-190z" />
<glyph unicode="g" horiz-adv-x="915" d="M172 -172q0 -137 268 -137q135 0 205 34.5t70 92.5q0 131 -330 131q-98 0 -155.5 -36t-57.5 -85zM281 295q-104 33 -158.5 106.5t-54.5 182.5q0 340 460 340h367v-150h-156q74 -80 74 -188q0 -117 -70.5 -198t-189.5 -103q-53 -10 -93 -15.5t-69 -13.5t-43 -21.5 t-14 -37.5q0 -23 18.5 -37.5t55 -25.5t92.5 -22l129 -26q272 -55 272 -262q0 -141 -115.5 -215t-343.5 -74q-223 0 -336.5 71.5t-113.5 207.5q0 199 266 247q-102 47 -102 113q0 70 125 121zM442 768q-88 0 -140 -50t-52 -126q0 -82 50 -127t142 -45t144.5 46t52.5 126 q0 76 -54.5 126t-142.5 50z" />
<glyph unicode="h" horiz-adv-x="1026" d="M121 1399h184v-588q68 66 136.5 96.5t148.5 30.5q152 0 238.5 -86t86.5 -240v-612h-186v565q0 113 -46 166t-146 53q-72 0 -127.5 -27.5t-104.5 -90.5v-666h-184v1399z" />
<glyph unicode="i" horiz-adv-x="432" d="M111 1196q0 45 30.5 74.5t73.5 29.5t73.5 -29.5t30.5 -74.5t-30.5 -74.5t-73.5 -29.5t-73.5 29.5t-30.5 74.5zM123 924h184v-924h-184v924z" />
<glyph unicode="j" horiz-adv-x="436" d="M0 -334q74 35 100.5 83t26.5 126v1049h186v-1033q0 -139 -43 -223t-155 -133zM115 1196q0 45 31.5 74.5t74.5 29.5t74 -29.5t31 -74.5t-31 -74.5t-74 -29.5t-74.5 29.5t-31.5 74.5z" />
<glyph unicode="k" horiz-adv-x="989" d="M551 502l465 -502h-252l-451 492l398 432h227zM123 1399h184v-1399h-184v1399z" />
<glyph unicode="l" horiz-adv-x="432" d="M123 1399h184v-1399h-184v1399z" />
<glyph unicode="m" horiz-adv-x="1626" d="M117 924h184v-113q68 66 136.5 96.5t148.5 30.5q102 0 170.5 -37t115.5 -119q80 78 154 117t164 39q152 0 239 -86t87 -240v-612h-187v565q0 113 -46 166t-146 53q-72 0 -126.5 -27.5t-105.5 -90.5v-666h-180v565q0 219 -195 219q-72 0 -125 -27.5t-104 -90.5v-666h-184 v924z" />
<glyph unicode="n" horiz-adv-x="1021" d="M117 924h184v-113q68 66 136.5 96.5t148.5 30.5q152 0 237.5 -86t85.5 -240v-612h-184v565q0 219 -195 219q-72 0 -125 -27.5t-104 -90.5v-666h-184v924z" />
<glyph unicode="o" horiz-adv-x="1095" d="M250 463q0 -66 23.5 -121t63.5 -97t94 -65.5t116 -23.5q61 0 115.5 24.5t94.5 65.5t63.5 97t23.5 120q0 63 -23.5 118.5t-63.5 97.5t-94.5 65.5t-115.5 23.5t-115.5 -23.5t-94.5 -65.5t-63.5 -97.5t-23.5 -118.5zM57 463q0 100 38 187t104.5 152.5t155.5 103.5t194 38 q98 0 186 -37t158 -104q72 -72 108.5 -157t36.5 -183q0 -96 -37.5 -185.5t-107.5 -156.5q-143 -139 -344 -139q-102 0 -192.5 37.5t-157 102t-104.5 153t-38 188.5z" />
<glyph unicode="p" horiz-adv-x="1058" d="M307 203q88 -63 191 -64q141 0 222 85t81 239t-81 237.5t-222 83.5q-102 0 -191 -63v-518zM121 924h186v-52q102 72 238 72q98 0 182 -35t143.5 -98t93 -152.5t33.5 -195.5q0 -109 -33.5 -197t-93 -151.5t-143.5 -98t-182 -34.5q-70 0 -127.5 16t-110.5 53v-516h-186 v1389z" />
<glyph unicode="q" horiz-adv-x="1058" d="M754 719q-88 63 -193 63q-141 0 -222 -85t-81 -238q0 -154 81 -238t222 -84q104 0 193 64v518zM754 51q-53 -37 -111.5 -53t-128.5 -16q-98 0 -182 34.5t-143.5 98t-93.5 151.5t-34 197q0 106 34 195.5t93.5 152.5t143.5 98t182 35q137 0 240 -72v52h184v-1389h-184v516z " />
<glyph unicode="r" horiz-adv-x="768" d="M119 924h184v-201q70 111 131.5 164t140.5 53q96 0 211 -90l-100 -164q-43 37 -84 55.5t-88 18.5q-72 0 -129 -60.5t-82 -177.5v-522h-184v924z" />
<glyph unicode="s" horiz-adv-x="770" d="M57 260q88 -59 165 -86t136 -27q72 0 112 27t40 72q0 27 -15.5 46t-44 37.5t-69.5 38t-90 46.5q-55 29 -97 56.5t-71 60t-43 71.5t-14 90q0 115 81.5 183.5t229.5 68.5q154 0 291 -76v-180q-80 45 -152 68.5t-137 23.5q-121 0 -121 -78q0 -55 53.5 -88.5t157.5 -85.5 q57 -29 102 -55.5t76 -58t47.5 -70.5t16.5 -94q0 -121 -90.5 -194.5t-243.5 -73.5q-170 0 -320 81v197z" />
<glyph unicode="t" horiz-adv-x="659" d="M627 29q-86 -47 -199 -47q-84 0 -139.5 20.5t-87 62t-44 106.5t-12.5 155v438h-157v18l323 357h21v-215h289v-160h-289v-424q0 -49 4 -84t18.5 -56.5t41 -31.5t71.5 -10q84 0 160 45v-174z" />
<glyph unicode="u" horiz-adv-x="1021" d="M721 113q-68 -66 -136.5 -96.5t-148.5 -30.5q-152 0 -238.5 86t-86.5 239v613h186v-566q0 -219 195 -219q72 0 125 28t104 91v666h184v-924h-184v113z" />
<glyph unicode="v" horiz-adv-x="909" d="M-29 924h205l285 -613l266 613h201l-426 -942h-86z" />
<glyph unicode="w" horiz-adv-x="1531" d="M-12 924h194l264 -613l254 613h121l258 -611l264 611h195l-412 -942h-90l-274 669l-275 -669h-90z" />
<glyph unicode="x" horiz-adv-x="974" d="M365 477l-365 447h227l248 -314l244 314h227l-354 -443l389 -481h-223l-277 340l-266 -340h-223z" />
<glyph unicode="y" horiz-adv-x="909" d="M-29 924h205l285 -541l266 541h201l-686 -1389h-201l319 647z" />
<glyph unicode="z" horiz-adv-x="903" d="M18 25l517 729h-496v170h817v-21l-506 -729h514v-174h-846v25z" />
<glyph unicode="{" horiz-adv-x="1024" d="M825 1327q-63 0 -103 -11t-61.5 -38t-29.5 -71t-8 -109v-242q0 -72 -8.5 -125t-30 -93t-61.5 -65.5t-101 -42.5q63 -16 102 -41.5t60.5 -65.5t30 -93.5t8.5 -124.5v-242q0 -66 7 -109.5t29.5 -70.5t62.5 -38t105 -11h39v-148h-43q-90 0 -156.5 9.5t-115.5 39.5 q-68 41 -84 116t-16 192v245q0 145 -53.5 208t-186.5 63q-10 0 -21.5 -1t-21.5 -1v149q12 0 23.5 -1t21.5 -1q131 0 184.5 61.5t53.5 206.5v246q0 117 16 191.5t84 115.5q51 31 118.5 41.5t159.5 10.5h37v-150h-41z" />
<glyph unicode="|" horiz-adv-x="1024" d="M588 -483h-150v2048h150v-2048z" />
<glyph unicode="}" horiz-adv-x="1024" d="M575 872q0 -74 12.5 -124t40 -82.5t74 -47t111.5 -14.5q10 0 21.5 1t23.5 1v-149q-10 0 -21.5 1t-21.5 1q-135 0 -187.5 -62.5t-52.5 -208.5v-245q0 -117 -16 -192t-84 -116q-49 -31 -115.5 -40t-156.5 -9h-43v148h39q63 0 104 11t62.5 38t29.5 72t8 110v240 q0 72 8.5 125t30 93t61.5 65.5t101 41.5q-61 16 -101 42t-61.5 66t-30 93t-8.5 125v242q0 66 -8 109.5t-29.5 70.5t-62.5 38t-104 11h-39v150h37q92 0 160.5 -10.5t117.5 -41.5q68 -41 84 -115.5t16 -191.5v-246z" />
<glyph unicode="~" horiz-adv-x="1705" d="M1530 614q-102 -72 -196.5 -106.5t-192.5 -34.5q-78 0 -148 23l-141 47q-72 25 -141.5 45t-147.5 20q-92 0 -183 -40t-202 -117v155q211 143 387 144q80 0 150.5 -18.5t140.5 -43.5l145 -50q70 -24 142 -24q96 0 188 40t199 116v-156z" />
<glyph unicode="&#xa1;" horiz-adv-x="516" d="M131 1294q0 53 36 90t89 37t90 -36.5t37 -90.5q0 -53 -37 -89t-90 -36t-89 36t-36 89zM268 969q47 -160 75 -353.5t28 -396.5q0 -123 -28 -180t-89 -57t-88 61t-27 188q0 129 9.5 246t24.5 212t33.5 167t35.5 113h26z" />
<glyph unicode="&#xa2;" d="M643 793q-10 2 -21 2h-22q-66 0 -120 -25t-94 -68t-62.5 -102t-22.5 -129q0 -154 129 -250zM365 49q-125 66 -192 176.5t-67 249.5q0 106 38 196.5t106.5 156t164 103.5t210.5 38h40q19 0 42 -4l120 319h111l-131 -346q37 -6 67 -29v-198q-61 37 -129 61l-217 -584 q57 -12 105 -12q129 0 256 64v-187q-59 -27 -129 -38t-150 -11q-63 0 -143 21l-145 -385h-109z" />
<glyph unicode="&#xa3;" d="M229 600h-135v180h197q92 324 220 484.5t286 160.5q47 0 100 -12l96 -188q-66 16 -116 16q-145 0 -234.5 -112.5t-148.5 -348.5h149v-180h-211l-102 -391q23 2 49.5 3t60.5 1q90 0 173 -19.5t165 -19.5q37 0 84 10.5t107 28.5v-199q-59 -16 -111.5 -24t-99.5 -8 q-74 0 -170 18t-213 18q-109 0 -307 -30z" />
<glyph unicode="&#xa4;" horiz-adv-x="1241" d="M926 887q0 61 -23.5 116.5t-64.5 97.5t-96.5 65.5t-118.5 23.5t-118.5 -23.5t-96.5 -65.5t-65 -97.5t-24 -116.5q0 -63 24 -118.5t65 -97.5t96 -65.5t119 -23.5q63 0 118.5 23.5t96.5 65.5t64.5 97.5t23.5 118.5zM367 1219q113 86 254 86t256 -86l204 204l82 -80 l-205 -206q82 -109 82 -252q0 -70 -19.5 -132.5t-62.5 -119.5l205 -205l-82 -82l-204 205q-53 -41 -116 -63.5t-138 -22.5q-143 0 -256 86l-205 -205l-82 82l207 205q-35 43 -59.5 106.5t-24.5 145.5q0 139 84 252l-207 206l82 80z" />
<glyph unicode="&#xa5;" horiz-adv-x="1159" d="M481 614h-434v111h418l-123 164h-295v108h215l-301 402h219l404 -547l407 547h226l-304 -400h199v-110h-283l-124 -164h407v-111h-436v-614h-195v614z" />
<glyph unicode="&#xa6;" horiz-adv-x="1024" d="M588 -350h-150v758h150v-758zM588 674h-150v758h150v-758z" />
<glyph unicode="&#xa7;" d="M612 379q78 35 114 76t36 102q0 59 -33 98t-104 74l-203 107q-78 -35 -115 -76t-37 -103q0 -59 34 -99t106 -75zM178 59q178 -113 328 -112q78 0 121 32.5t43 86.5q0 57 -51.5 99t-153.5 93l-159 82q-71 37 -121 78t-76.5 93t-26.5 126q0 184 215 274q-125 84 -125 226 q0 129 92 207.5t262 78.5q86 0 161 -17t144 -56v-181q-170 96 -294 97q-82 0 -126 -32t-44 -91q0 -35 17 -60.5t53 -51t87 -52.5l119 -61q74 -37 131 -72t96 -74t59.5 -87t20.5 -110q0 -96 -53 -161.5t-164 -110.5q127 -90 127 -227q0 -131 -92 -209t-262 -78 q-174 0 -328 86v184z" />
<glyph unicode="&#xa8;" horiz-adv-x="1024" d="M604 1208q0 41 29 71t69 30q41 0 71 -30t30 -71q0 -43 -30 -71.5t-71 -28.5t-69.5 28.5t-28.5 71.5zM223 1208q0 41 29 71t70 30t70.5 -30t29.5 -71q0 -43 -30 -71.5t-70 -28.5q-41 0 -70 28.5t-29 71.5z" />
<glyph unicode="&#xa9;" horiz-adv-x="1705" d="M1053 907q-12 78 -65.5 119t-139.5 41q-102 0 -163.5 -87t-61.5 -253q0 -160 62.5 -246t172.5 -86q82 0 136.5 46t68.5 130h145q-10 -131 -107 -211.5t-249 -80.5q-180 0 -284.5 118.5t-104.5 335.5q0 100 28.5 183t81 140.5t125 89.5t160.5 32q72 0 132.5 -19.5 t105.5 -55.5t71.5 -86t32.5 -110h-147zM1493 727q0 131 -47 247t-137 206q-188 188 -455 188q-131 0 -244.5 -47t-203.5 -137q-94 -94 -143.5 -212t-49.5 -245t49 -242.5t141 -208.5q92 -92 207 -140t244 -48q127 0 242.5 49t212.5 142q90 88 137 201.5t47 246.5zM852 1464 q152 0 285 -54t239 -161q104 -104 159.5 -238t55.5 -284q0 -152 -54 -283t-159 -233q-111 -106 -245 -163.5t-281 -57.5t-279.5 56t-238.5 163q-106 106 -161.5 238.5t-55.5 279.5t55 280.5t164 243.5q104 104 235 158.5t281 54.5z" />
<glyph unicode="&#xaa;" horiz-adv-x="665" d="M428 1073q-123 -35 -184.5 -68.5t-61.5 -86.5q0 -41 28 -61.5t77 -20.5q76 0 141 47v190zM434 805q-51 -35 -98 -50.5t-103 -15.5q-96 0 -147 43t-51 115q0 135 229 207l164 51q2 10 2 29q0 57 -30.5 82.5t-100.5 25.5q-117 0 -242 -90v127q53 41 120 61.5t140 20.5 q137 0 195.5 -56.5t58.5 -174.5v-275q0 -63 29 -63q16 0 32.5 10t39.5 27v-80q-74 -59 -156 -60q-76 0 -82 66z" />
<glyph unicode="&#xab;" horiz-adv-x="870" d="M807 780l-236 -317l236 -301h-158l-241 301l241 317h158zM461 780l-236 -317l236 -301h-158l-240 301l240 317h158z" />
<glyph unicode="&#xac;" horiz-adv-x="1705" d="M1452 358h-137v363h-1061v139h1198v-502z" />
<glyph unicode="&#xad;" horiz-adv-x="692" d="M84 545h524v-166h-524v166z" />
<glyph unicode="&#xae;" horiz-adv-x="1705" d="M715 1057v-277h133q109 0 160 30t51 103q0 78 -52.5 111t-162.5 33h-129zM872 1159q348 0 349 -229q0 -90 -49.5 -148.5t-141.5 -76.5l187 -381h-177l-170 356h-155v-356h-158v835h315zM1493 721q0 135 -46 250.5t-136 206.5q-92 94 -208 142t-249 48q-129 0 -243.5 -46 t-202.5 -136q-94 -96 -144.5 -214t-50.5 -245t48 -241.5t140 -206.5t208 -141.5t239 -49.5q131 0 246.5 48t212.5 140q92 88 139 202t47 243zM852 1464q152 0 286 -55t240 -164q102 -104 157.5 -237.5t55.5 -280.5q0 -154 -55 -285t-160 -233q-111 -106 -245 -162.5 t-279 -56.5q-147 0 -280.5 56t-239.5 165q-104 106 -159.5 237.5t-55.5 278.5t57 282.5t166 245.5q102 104 232 156.5t280 52.5z" />
<glyph unicode="&#xaf;" horiz-adv-x="1024" d="M254 1274h516v-125h-516v125z" />
<glyph unicode="&#x2c9;" horiz-adv-x="1024" d="M254 1274h516v-125h-516v125z" />
<glyph unicode="&#xb0;" horiz-adv-x="673" d="M530 1169q0 80 -55 136.5t-137 56.5q-41 0 -76 -14.5t-61.5 -41t-42 -61.5t-15.5 -76q0 -82 56.5 -139t138.5 -57q41 0 77 15.5t61.5 43t39.5 62t14 75.5zM338 1456q59 0 111.5 -22.5t91.5 -61.5t61.5 -92t22.5 -113q0 -59 -22.5 -110t-60.5 -91t-91.5 -62.5 t-114.5 -22.5t-113.5 22.5t-90.5 61.5t-60.5 91t-22.5 111q0 61 22.5 113.5t62.5 91.5t92.5 61.5t111.5 22.5z" />
<glyph unicode="&#xb1;" horiz-adv-x="1705" d="M1452 29h-1198v141h1198v-141zM924 852h528v-139h-528v-340h-142v340h-528v139h528v340h142v-340z" />
<glyph unicode="&#xb2;" horiz-adv-x="681" d="M45 559q90 119 158.5 194.5t103.5 123.5q129 166 129 268q0 70 -44 111.5t-116 41.5q-96 0 -206 -104v143q113 76 225 76q123 0 197.5 -69.5t74.5 -184.5q0 -109 -74.5 -222.5t-207.5 -256.5h348v-121h-588z" />
<glyph unicode="&#xb3;" horiz-adv-x="681" d="M90 721q104 -51 199 -51q72 0 111.5 36.5t39.5 96.5q0 129 -196 139v107q92 0 140 36.5t48 96.5q0 53 -46 88t-124 35q-37 0 -73.5 -11.5t-82.5 -27.5v108q47 18 90.5 28.5t88.5 10.5q129 0 202.5 -61.5t73.5 -159.5q0 -119 -110 -184q131 -57 131 -201 q0 -117 -81 -189.5t-216 -72.5q-96 0 -195 49v127z" />
<glyph unicode="&#xb4;" horiz-adv-x="1024" d="M584 1403h178l-281 -348h-106z" />
<glyph unicode="&#xb5;" horiz-adv-x="1150" d="M256 471q-14 -63 -14 -133q0 -100 52 -153.5t148 -53.5q137 0 212 98.5t120 305.5l115 536h178l-156 -731q-10 -45 -16 -78t-6 -55q0 -37 16.5 -52.5t55.5 -15.5h15q7 0 17 2l-30 -143q-29 -6 -55.5 -8t-53.5 -2q-66 0 -98.5 29.5t-50.5 99.5q-88 -131 -271 -131 q-82 0 -142.5 27.5t-113.5 88.5l-110 -530h-181l318 1499h180z" />
<glyph unicode="&#x3bc;" horiz-adv-x="1150" d="M256 471q-14 -63 -14 -133q0 -100 52 -153.5t148 -53.5q137 0 212 98.5t120 305.5l115 536h178l-156 -731q-10 -45 -16 -78t-6 -55q0 -37 16.5 -52.5t55.5 -15.5h15q7 0 17 2l-30 -143q-29 -6 -55.5 -8t-53.5 -2q-66 0 -98.5 29.5t-50.5 99.5q-88 -131 -271 -131 q-82 0 -142.5 27.5t-113.5 88.5l-110 -530h-181l318 1499h180z" />
<glyph unicode="&#xb6;" horiz-adv-x="1024" d="M838 1393v-1393h-111v1393h-178v-1393h-111v782q-174 8 -273 103.5t-99 244.5q0 76 27.5 140.5t78.5 110.5t124 72t163 26h499v-86h-120z" />
<glyph unicode="&#xb7;" horiz-adv-x="516" d="M139 707q0 51 35 85.5t86 34.5t86 -34.5t35 -85.5t-35 -86t-86 -35t-86 35t-35 86z" />
<glyph unicode="&#x2219;" horiz-adv-x="516" d="M139 707q0 51 35 85.5t86 34.5t86 -34.5t35 -85.5t-35 -86t-86 -35t-86 35t-35 86z" />
<glyph unicode="&#xb8;" horiz-adv-x="1024" d="M262 -336q160 -37 248 -37q121 0 121 84q0 53 -34 76t-105 23h-25q-12 0 -27 -3v193h72v-106h23q227 0 227 -177q0 -182 -250 -182q-49 0 -110.5 10.5t-139.5 30.5v88z" />
<glyph unicode="&#xb9;" horiz-adv-x="681" d="M274 1399h132v-840h-132v840z" />
<glyph unicode="&#xba;" horiz-adv-x="821" d="M188 1075q0 -45 17.5 -84t47.5 -68.5t69.5 -46t87.5 -16.5q45 0 86 16.5t71.5 46t48 68.5t17.5 84t-17.5 84t-48 67.5t-71.5 45t-86 16.5q-47 0 -87 -16.5t-70 -45t-47.5 -67.5t-17.5 -84zM43 1075q0 70 28.5 131.5t78 107.5t117 72.5t145.5 26.5q74 0 139 -26.5 t119 -73.5q109 -98 108 -238q0 -66 -27.5 -129t-80.5 -110q-106 -96 -258 -97q-78 0 -144.5 26t-117 72t-79 106t-28.5 132z" />
<glyph unicode="&#xbb;" horiz-adv-x="870" d="M461 463l-242 -301h-156l234 301l-234 317h156zM805 463l-240 -301h-157l235 301l-235 317h157z" />
<glyph unicode="&#xbc;" horiz-adv-x="1652" d="M1386 262h-376v47l442 488h55v-443h99v-92h-99v-262h-121v262zM1391 590l-213 -236h208zM309 -25l873 1446h151l-872 -1446h-152zM262 1397h125v-783h-125v783z" />
<glyph unicode="&#xbd;" horiz-adv-x="1652" d="M1044 0q86 111 152 182l100 113q121 156 121 252q0 66 -41 104.5t-110 38.5q-47 0 -96.5 -24.5t-100.5 -71.5v133q106 70 213 70q117 0 189.5 -64.5t72.5 -173.5q0 -102 -71.5 -206.5t-200.5 -239.5h334v-113h-562zM309 -25l873 1446h151l-872 -1446h-152zM262 1397h125 v-783h-125v783z" />
<glyph unicode="&#xbe;" horiz-adv-x="1652" d="M1386 262h-376v47l442 488h55v-443h99v-92h-99v-262h-121v262zM1391 590l-213 -236h208zM309 -25l873 1446h151l-872 -1446h-152zM86 766q104 -49 188 -49q70 0 108 33.5t38 91.5q0 119 -187 131v98q86 0 132.5 35t46.5 88q0 49 -43 82t-119 33q-35 0 -71 -9.5t-77 -25.5 v100q86 37 170 37q123 0 193 -57.5t70 -149.5q0 -111 -105 -172q59 -25 92 -73t33 -113q0 -109 -78 -177.5t-207 -68.5q-90 0 -184 47v119z" />
<glyph unicode="&#xbf;" horiz-adv-x="641" d="M553 35q-102 -55 -215 -55q-66 0 -122 22.5t-96 64.5t-62.5 98t-22.5 124q0 96 35.5 169.5t99.5 153.5l70.5 86t60.5 75t42 71t15 71q0 29 -12 64l47 20q82 -84 82 -186q0 -57 -21.5 -108.5t-56.5 -108.5l-96 -151q-43 -67 -43 -136q0 -59 36 -95t95 -36q43 0 93 19.5 t110 54.5zM231 1298q0 53 36 88t89 35t89 -34.5t36 -88.5q0 -53 -35.5 -88.5t-89.5 -35.5q-53 0 -89 35.5t-36 88.5z" />
<glyph unicode="&#xc0;" horiz-adv-x="1275" d="M852 592l-221 504l-215 -504h436zM561 1399h146l614 -1399h-207l-180 412h-596l-178 -412h-205zM670 1534l-281 348h178l209 -348h-106z" />
<glyph unicode="&#xc1;" horiz-adv-x="1275" d="M852 592l-221 504l-215 -504h436zM561 1399h146l614 -1399h-207l-180 412h-596l-178 -412h-205zM711 1882h178l-281 -348h-106z" />
<glyph unicode="&#xc2;" horiz-adv-x="1275" d="M852 592l-221 504l-215 -504h436zM561 1399h146l614 -1399h-207l-180 412h-596l-178 -412h-205zM549 1882h178l197 -348h-107l-178 241l-180 -241h-107z" />
<glyph unicode="&#xc3;" horiz-adv-x="1275" d="M852 592l-221 504l-215 -504h436zM561 1399h146l614 -1399h-207l-180 412h-596l-178 -412h-205zM930 1802q-25 -96 -76 -144.5t-123 -48.5q-18 0 -33.5 3.5t-31.5 7.5l-80 26q-25 8 -53 9q-68 0 -97 -64h-88q43 186 199 186q35 0 59 -8l78 -28q35 -10 61 -11q72 0 97 72 h88z" />
<glyph unicode="&#xc4;" horiz-adv-x="1275" d="M852 592l-221 504l-215 -504h436zM561 1399h146l614 -1399h-207l-180 412h-596l-178 -412h-205zM731 1687q0 41 29 71t69 30q41 0 71 -30t30 -71q0 -43 -30 -71.5t-71 -28.5t-69.5 28.5t-28.5 71.5zM350 1687q0 41 29 71t70 30t70.5 -30t29.5 -71q0 -43 -30 -71.5 t-70 -28.5q-41 0 -70 28.5t-29 71.5z" />
<glyph unicode="&#xc5;" horiz-adv-x="1275" d="M492 1712q0 -59 41.5 -101t101.5 -42q59 0 100 42t41 101t-41 101t-100 42q-61 0 -102 -42t-41 -101zM385 1712q0 51 19.5 97t52 79t78 52.5t98.5 19.5q51 0 97 -19.5t80 -52.5t53.5 -79t19.5 -97q0 -53 -19.5 -98t-53.5 -78t-80 -52.5t-97 -19.5q-53 0 -98.5 19.5 t-78 52.5t-52 78t-19.5 98zM852 592l-221 504l-215 -504h436zM561 1399h146l614 -1399h-207l-180 412h-596l-178 -412h-205z" />
<glyph unicode="&#xc6;" horiz-adv-x="1880" d="M905 403h-553l-268 -403h-217l928 1399h964v-180h-649v-422h629v-181h-629v-436h668v-180h-873v403zM895 1219l-414 -627h424v627h-10z" />
<glyph unicode="&#xc7;" horiz-adv-x="1421" d="M1341 106q-250 -131 -503 -131q-240 0 -435 125q-158 102 -243.5 260t-85.5 345q0 141 57 273t162 232q223 211 559 211q145 0 262 -33.5t215 -78.5v-217q-129 70 -244.5 105.5t-232.5 35.5q-125 0 -229.5 -42t-179 -113.5t-115.5 -169t-41 -210.5t41 -210t114.5 -168.5 t175 -112.5t222.5 -41q244 0 501 166v-226zM504 -336q160 -37 248 -37q121 0 121 84q0 53 -34 76t-105 23h-25q-12 0 -27 -3v193h72v-106h23q227 0 227 -177q0 -182 -250 -182q-49 0 -110.5 10.5t-139.5 30.5v88z" />
<glyph unicode="&#xc8;" horiz-adv-x="1114" d="M150 1399h841v-178h-643v-424h625v-181h-625v-436h664v-180h-862v1399zM600 1534l-281 348h178l209 -348h-106z" />
<glyph unicode="&#xc9;" horiz-adv-x="1114" d="M150 1399h841v-178h-643v-424h625v-181h-625v-436h664v-180h-862v1399zM641 1882h178l-281 -348h-106z" />
<glyph unicode="&#xca;" horiz-adv-x="1114" d="M150 1399h841v-178h-643v-424h625v-181h-625v-436h664v-180h-862v1399zM479 1882h178l197 -348h-107l-178 241l-180 -241h-107z" />
<glyph unicode="&#xcb;" horiz-adv-x="1114" d="M150 1399h841v-178h-643v-424h625v-181h-625v-436h664v-180h-862v1399zM661 1687q0 41 29 71t69 30q41 0 71 -30t30 -71q0 -43 -30 -71.5t-71 -28.5t-69.5 28.5t-28.5 71.5zM280 1687q0 41 29 71t70 30t70.5 -30t29.5 -71q0 -43 -30 -71.5t-70 -28.5q-41 0 -70 28.5 t-29 71.5z" />
<glyph unicode="&#xcc;" horiz-adv-x="512" d="M156 1399h200v-1399h-200v1399zM289 1534l-281 348h178l209 -348h-106z" />
<glyph unicode="&#xcd;" horiz-adv-x="512" d="M156 1399h200v-1399h-200v1399zM330 1882h178l-281 -348h-106z" />
<glyph unicode="&#xce;" horiz-adv-x="512" d="M156 1399h200v-1399h-200v1399zM168 1882h178l197 -348h-107l-178 241l-180 -241h-107z" />
<glyph unicode="&#xcf;" horiz-adv-x="512" d="M156 1399h200v-1399h-200v1399zM350 1687q0 41 29 71t69 30q41 0 71 -30t30 -71q0 -43 -30 -71.5t-71 -28.5t-69.5 28.5t-28.5 71.5zM-31 1687q0 41 29 71t70 30t70.5 -30t29.5 -71q0 -43 -30 -71.5t-70 -28.5q-41 0 -70 28.5t-29 71.5z" />
<glyph unicode="&#xd0;" horiz-adv-x="1531" d="M362 1208v-426h365v-159h-365v-433h316q133 0 236.5 37t174 103.5t107.5 160t37 207.5q0 115 -37 209t-107.5 161t-174 103.5t-236.5 36.5h-316zM678 1399q141 0 255 -25.5t216 -95.5q141 -96 219 -245.5t78 -332.5q0 -182 -79 -332.5t-220 -246.5q-98 -68 -213 -94.5 t-256 -26.5h-514v623h-164v159h164v617h514z" />
<glyph unicode="&#xd1;" horiz-adv-x="1593" d="M150 1399h174l921 -1086v1086h199v-1399h-178l-918 1087v-1087h-198v1399zM1088 1802q-25 -96 -76 -144.5t-123 -48.5q-18 0 -33.5 3.5t-31.5 7.5l-80 26q-25 8 -53 9q-68 0 -97 -64h-88q43 186 199 186q35 0 59 -8l78 -28q35 -10 61 -11q72 0 97 72h88z" />
<glyph unicode="&#xd2;" horiz-adv-x="1640" d="M287 698q0 -109 40 -205t115 -171q74 -76 172.5 -116t204.5 -40q223 0 379 156q76 76 116 172t40 204q0 109 -40 204t-118 173q-76 78 -172 118t-205 40q-106 0 -202.5 -41t-174.5 -117q-76 -74 -115.5 -171t-39.5 -206zM74 705q0 141 57 272t162 233q109 104 243 157.5 t283 53.5q152 0 288 -53t241 -158q219 -213 219 -518q0 -141 -55.5 -272t-161.5 -234q-221 -211 -531 -211q-150 0 -286 54.5t-240 156.5q-109 104 -164 236.5t-55 282.5zM852 1534l-281 348h178l209 -348h-106z" />
<glyph unicode="&#xd3;" horiz-adv-x="1640" d="M287 698q0 -109 40 -205t115 -171q74 -76 172.5 -116t204.5 -40q223 0 379 156q76 76 116 172t40 204q0 109 -40 204t-118 173q-76 78 -172 118t-205 40q-106 0 -202.5 -41t-174.5 -117q-76 -74 -115.5 -171t-39.5 -206zM74 705q0 141 57 272t162 233q109 104 243 157.5 t283 53.5q152 0 288 -53t241 -158q219 -213 219 -518q0 -141 -55.5 -272t-161.5 -234q-221 -211 -531 -211q-150 0 -286 54.5t-240 156.5q-109 104 -164 236.5t-55 282.5zM893 1882h178l-281 -348h-106z" />
<glyph unicode="&#xd4;" horiz-adv-x="1640" d="M287 698q0 -109 40 -205t115 -171q74 -76 172.5 -116t204.5 -40q223 0 379 156q76 76 116 172t40 204q0 109 -40 204t-118 173q-76 78 -172 118t-205 40q-106 0 -202.5 -41t-174.5 -117q-76 -74 -115.5 -171t-39.5 -206zM74 705q0 141 57 272t162 233q109 104 243 157.5 t283 53.5q152 0 288 -53t241 -158q219 -213 219 -518q0 -141 -55.5 -272t-161.5 -234q-221 -211 -531 -211q-150 0 -286 54.5t-240 156.5q-109 104 -164 236.5t-55 282.5zM731 1882h178l197 -348h-107l-178 241l-180 -241h-107z" />
<glyph unicode="&#xd5;" horiz-adv-x="1640" d="M287 698q0 -109 40 -205t115 -171q74 -76 172.5 -116t204.5 -40q223 0 379 156q76 76 116 172t40 204q0 109 -40 204t-118 173q-76 78 -172 118t-205 40q-106 0 -202.5 -41t-174.5 -117q-76 -74 -115.5 -171t-39.5 -206zM74 705q0 141 57 272t162 233q109 104 243 157.5 t283 53.5q152 0 288 -53t241 -158q219 -213 219 -518q0 -141 -55.5 -272t-161.5 -234q-221 -211 -531 -211q-150 0 -286 54.5t-240 156.5q-109 104 -164 236.5t-55 282.5zM1112 1802q-25 -96 -76 -144.5t-123 -48.5q-18 0 -33.5 3.5t-31.5 7.5l-80 26q-25 8 -53 9 q-68 0 -97 -64h-88q43 186 199 186q35 0 59 -8l78 -28q35 -10 61 -11q72 0 97 72h88z" />
<glyph unicode="&#xd6;" horiz-adv-x="1640" d="M287 698q0 -109 40 -205t115 -171q74 -76 172.5 -116t204.5 -40q223 0 379 156q76 76 116 172t40 204q0 109 -40 204t-118 173q-76 78 -172 118t-205 40q-106 0 -202.5 -41t-174.5 -117q-76 -74 -115.5 -171t-39.5 -206zM74 705q0 141 57 272t162 233q109 104 243 157.5 t283 53.5q152 0 288 -53t241 -158q219 -213 219 -518q0 -141 -55.5 -272t-161.5 -234q-221 -211 -531 -211q-150 0 -286 54.5t-240 156.5q-109 104 -164 236.5t-55 282.5zM913 1687q0 41 29 71t69 30q41 0 71 -30t30 -71q0 -43 -30 -71.5t-71 -28.5t-69.5 28.5t-28.5 71.5z M532 1687q0 41 29 71t70 30t70.5 -30t29.5 -71q0 -43 -30 -71.5t-70 -28.5q-41 0 -70 28.5t-29 71.5z" />
<glyph unicode="&#xd7;" horiz-adv-x="1705" d="M1329 1178l98 -99l-469 -469l469 -469l-98 -96l-469 467l-469 -467l-98 96l469 469l-469 469l98 99l469 -469z" />
<glyph unicode="&#xd8;" horiz-adv-x="1640" d="M1145 1114q-66 57 -149 88t-177 31q-106 0 -202.5 -41t-174.5 -117q-76 -74 -115.5 -172t-39.5 -205q0 -88 22.5 -160.5t73.5 -142.5zM485 287q139 -121 334 -121q113 0 210 41t169 113.5t114 173t42 219.5q0 86 -25.5 159.5t-81.5 139.5zM236 256q-162 174 -162 436 q0 150 55 282t164 236q106 104 238.5 158.5t279.5 54.5q86 0 159.5 -15t134 -38.5t108 -53.5t81.5 -59l181 173l106 -105l-182 -174q86 -94 128 -202.5t42 -237.5q0 -309 -219 -525q-215 -211 -523 -211q-270 0 -489 170l-195 -186l-104 104z" />
<glyph unicode="&#xd9;" horiz-adv-x="1488" d="M340 1399v-803q0 -94 8 -164t55 -123q123 -145 340 -145q92 0 166 24.5t127.5 69.5t82 108.5t28.5 139.5v893h199v-899q0 -117 -43 -213.5t-123 -165t-190.5 -107.5t-246.5 -39q-162 0 -288.5 56.5t-214.5 165.5q-35 43 -55.5 88t-30 93t-11.5 100t-2 110v811h199z M776 1534l-281 348h178l209 -348h-106z" />
<glyph unicode="&#xda;" horiz-adv-x="1488" d="M340 1399v-803q0 -94 8 -164t55 -123q123 -145 340 -145q92 0 166 24.5t127.5 69.5t82 108.5t28.5 139.5v893h199v-899q0 -117 -43 -213.5t-123 -165t-190.5 -107.5t-246.5 -39q-162 0 -288.5 56.5t-214.5 165.5q-35 43 -55.5 88t-30 93t-11.5 100t-2 110v811h199z M817 1882h178l-281 -348h-106z" />
<glyph unicode="&#xdb;" horiz-adv-x="1488" d="M340 1399v-803q0 -94 8 -164t55 -123q123 -145 340 -145q92 0 166 24.5t127.5 69.5t82 108.5t28.5 139.5v893h199v-899q0 -117 -43 -213.5t-123 -165t-190.5 -107.5t-246.5 -39q-162 0 -288.5 56.5t-214.5 165.5q-35 43 -55.5 88t-30 93t-11.5 100t-2 110v811h199z M655 1882h178l197 -348h-107l-178 241l-180 -241h-107z" />
<glyph unicode="&#xdc;" horiz-adv-x="1488" d="M340 1399v-803q0 -94 8 -164t55 -123q123 -145 340 -145q92 0 166 24.5t127.5 69.5t82 108.5t28.5 139.5v893h199v-899q0 -117 -43 -213.5t-123 -165t-190.5 -107.5t-246.5 -39q-162 0 -288.5 56.5t-214.5 165.5q-35 43 -55.5 88t-30 93t-11.5 100t-2 110v811h199z M837 1687q0 41 29 71t69 30q41 0 71 -30t30 -71q0 -43 -30 -71.5t-71 -28.5t-69.5 28.5t-28.5 71.5zM456 1687q0 41 29 71t70 30t70.5 -30t29.5 -71q0 -43 -30 -71.5t-70 -28.5q-41 0 -70 28.5t-29 71.5z" />
<glyph unicode="&#xdd;" horiz-adv-x="1193" d="M485 700l-540 699h237l408 -531l418 531h241l-561 -709v-690h-203v700zM670 1882h178l-281 -348h-106z" />
<glyph unicode="&#xde;" horiz-adv-x="1110" d="M565 489q141 0 209 50.5t68 169.5q0 117 -67.5 168t-209.5 51h-217v-439h217zM150 1399h198v-291h238q223 0 344 -106.5t121 -292.5t-121 -292t-344 -106h-238v-311h-198v1399z" />
<glyph unicode="&#xdf;" horiz-adv-x="1028" d="M115 0v1040q0 184 102 282.5t293 98.5q88 0 158.5 -24.5t120 -67.5t76 -103.5t26.5 -133.5q0 -227 -184 -314q129 -53 189 -139t60 -219q0 -209 -103 -324.5t-290 -115.5q-27 0 -54.5 3t-55.5 7v184q63 -18 106 -18q92 0 147.5 66.5t55.5 183.5q0 141 -70.5 209.5 t-224.5 74.5v158h6q115 0 174.5 55t59.5 154q0 100 -58.5 160.5t-150.5 60.5q-86 0 -140.5 -54.5t-54.5 -146.5v-1077h-188z" />
<glyph unicode="&#xe0;" horiz-adv-x="886" d="M571 459q-166 -51 -246.5 -99.5t-80.5 -121.5q0 -57 36.5 -88t102.5 -31q98 0 188 69v271zM578 76q-68 -47 -130.5 -69.5t-136.5 -22.5q-129 0 -196.5 60t-67.5 163q0 195 305 297l219 74q2 10 2 19v19q0 84 -40.5 120t-133.5 36q-158 0 -323 -129v182q72 59 160 88 t186 29q184 0 262 -80t78 -252v-391q0 -45 7 -67.5t30 -22.5t45 14.5t51 36.5v-112q-98 -84 -207 -84q-53 0 -79.5 21.5t-30.5 70.5zM467 1055l-281 348h178l209 -348h-106z" />
<glyph unicode="&#xe1;" horiz-adv-x="886" d="M571 459q-166 -51 -246.5 -99.5t-80.5 -121.5q0 -57 36.5 -88t102.5 -31q98 0 188 69v271zM578 76q-68 -47 -130.5 -69.5t-136.5 -22.5q-129 0 -196.5 60t-67.5 163q0 195 305 297l219 74q2 10 2 19v19q0 84 -40.5 120t-133.5 36q-158 0 -323 -129v182q72 59 160 88 t186 29q184 0 262 -80t78 -252v-391q0 -45 7 -67.5t30 -22.5t45 14.5t51 36.5v-112q-98 -84 -207 -84q-53 0 -79.5 21.5t-30.5 70.5zM508 1403h178l-281 -348h-106z" />
<glyph unicode="&#xe2;" horiz-adv-x="886" d="M571 459q-166 -51 -246.5 -99.5t-80.5 -121.5q0 -57 36.5 -88t102.5 -31q98 0 188 69v271zM578 76q-68 -47 -130.5 -69.5t-136.5 -22.5q-129 0 -196.5 60t-67.5 163q0 195 305 297l219 74q2 10 2 19v19q0 84 -40.5 120t-133.5 36q-158 0 -323 -129v182q72 59 160 88 t186 29q184 0 262 -80t78 -252v-391q0 -45 7 -67.5t30 -22.5t45 14.5t51 36.5v-112q-98 -84 -207 -84q-53 0 -79.5 21.5t-30.5 70.5zM346 1403h178l197 -348h-107l-178 241l-180 -241h-107z" />
<glyph unicode="&#xe3;" horiz-adv-x="886" d="M571 459q-166 -51 -246.5 -99.5t-80.5 -121.5q0 -57 36.5 -88t102.5 -31q98 0 188 69v271zM578 76q-68 -47 -130.5 -69.5t-136.5 -22.5q-129 0 -196.5 60t-67.5 163q0 195 305 297l219 74q2 10 2 19v19q0 84 -40.5 120t-133.5 36q-158 0 -323 -129v182q72 59 160 88 t186 29q184 0 262 -80t78 -252v-391q0 -45 7 -67.5t30 -22.5t45 14.5t51 36.5v-112q-98 -84 -207 -84q-53 0 -79.5 21.5t-30.5 70.5zM727 1323q-25 -96 -76 -144.5t-123 -48.5q-18 0 -33.5 3.5t-31.5 7.5l-80 26q-25 8 -53 9q-68 0 -97 -64h-88q43 186 199 186q35 0 59 -8 l78 -28q35 -10 61 -11q72 0 97 72h88z" />
<glyph unicode="&#xe4;" horiz-adv-x="886" d="M571 459q-166 -51 -246.5 -99.5t-80.5 -121.5q0 -57 36.5 -88t102.5 -31q98 0 188 69v271zM578 76q-68 -47 -130.5 -69.5t-136.5 -22.5q-129 0 -196.5 60t-67.5 163q0 195 305 297l219 74q2 10 2 19v19q0 84 -40.5 120t-133.5 36q-158 0 -323 -129v182q72 59 160 88 t186 29q184 0 262 -80t78 -252v-391q0 -45 7 -67.5t30 -22.5t45 14.5t51 36.5v-112q-98 -84 -207 -84q-53 0 -79.5 21.5t-30.5 70.5zM528 1208q0 41 29 71t69 30q41 0 71 -30t30 -71q0 -43 -30 -71.5t-71 -28.5t-69.5 28.5t-28.5 71.5zM147 1208q0 41 29 71t70 30t70.5 -30 t29.5 -71q0 -43 -30 -71.5t-70 -28.5q-41 0 -70 28.5t-29 71.5z" />
<glyph unicode="&#xe5;" horiz-adv-x="886" d="M186 1260q0 51 19.5 96t52.5 78.5t78 52t98 18.5q51 0 97.5 -18.5t80 -52t53 -78.5t19.5 -96q0 -53 -19.5 -98.5t-53 -78t-80 -52t-97.5 -19.5q-53 0 -98 19.5t-78 52t-52.5 78t-19.5 98.5zM293 1257q0 -59 42 -101t101 -42t100.5 42t41.5 101t-41 101.5t-101 42.5 q-61 0 -102 -42.5t-41 -101.5zM578 76q-68 -47 -130.5 -69.5t-136.5 -22.5q-129 0 -196.5 60t-67.5 163q0 195 305 297l219 74q2 10 2 19v19q0 84 -40.5 120t-133.5 36q-158 0 -323 -129v182q72 59 160 88t186 29q184 0 262 -80t78 -252v-391q0 -45 7 -67.5t30 -22.5 t45 14.5t51 36.5v-112q-98 -84 -207 -84q-53 0 -79.5 21.5t-30.5 70.5zM571 459q-166 -51 -246.5 -99.5t-80.5 -121.5q0 -57 36.5 -88t102.5 -31q98 0 188 69v271z" />
<glyph unicode="&#xe6;" horiz-adv-x="1527" d="M688 137q-104 -78 -193 -120t-182 -42q-123 0 -193.5 65.5t-70.5 168.5q0 139 128 224t394 132q2 10 2 22v21q0 86 -38.5 125t-124.5 39q-168 0 -334 -129v182q72 57 165 88t197 31q182 0 281 -123q70 70 144.5 97.5t172.5 27.5t178 -32.5t137.5 -96t88 -154t30.5 -204.5 v-27h-692q8 -133 87 -206.5t210 -73.5q111 0 206 42t173 91v-187q-182 -119 -395 -118q-117 0 -205 36.5t-166 120.5zM571 442q-328 -55 -327 -204q0 -57 36.5 -88t102.5 -31q98 0 188 69v254zM1270 565q-10 102 -75 162.5t-161 60.5q-215 0 -256 -223h492z" />
<glyph unicode="&#xe7;" horiz-adv-x="901" d="M840 31q-139 -49 -267 -49q-115 0 -210 35.5t-162.5 100t-105.5 152.5t-38 193q0 100 38 188t105.5 152.5t161 102.5t203.5 38q133 0 260 -57v-197q-127 76 -254 76q-74 0 -133 -22.5t-101 -63.5t-64.5 -96.5t-22.5 -120.5q0 -66 22.5 -122t65.5 -97t104.5 -64.5 t137.5 -23.5q135 0 260 63v-188zM250 -336q160 -37 248 -37q121 0 121 84q0 53 -34 76t-105 23h-25q-12 0 -27 -3v193h72v-106h23q227 0 227 -177q0 -182 -250 -182q-49 0 -110.5 10.5t-139.5 30.5v88z" />
<glyph unicode="&#xe8;" horiz-adv-x="999" d="M928 98q-182 -119 -391 -118q-111 0 -200 35.5t-150.5 101t-95.5 158t-34 202.5q0 102 33 188.5t92.5 147.5t142.5 95t185 34q98 0 178 -32.5t137.5 -96t88 -154t30.5 -202.5v-27h-692q8 -133 86 -205.5t209 -72.5q176 0 381 131v-185zM741 561q-10 102 -73.5 162.5 t-159.5 60.5q-215 0 -256 -223h489zM533 1055l-281 348h178l209 -348h-106z" />
<glyph unicode="&#xe9;" horiz-adv-x="999" d="M928 98q-182 -119 -391 -118q-111 0 -200 35.5t-150.5 101t-95.5 158t-34 202.5q0 102 33 188.5t92.5 147.5t142.5 95t185 34q98 0 178 -32.5t137.5 -96t88 -154t30.5 -202.5v-27h-692q8 -133 86 -205.5t209 -72.5q176 0 381 131v-185zM741 561q-10 102 -73.5 162.5 t-159.5 60.5q-215 0 -256 -223h489zM574 1403h178l-281 -348h-106z" />
<glyph unicode="&#xea;" horiz-adv-x="999" d="M928 98q-182 -119 -391 -118q-111 0 -200 35.5t-150.5 101t-95.5 158t-34 202.5q0 102 33 188.5t92.5 147.5t142.5 95t185 34q98 0 178 -32.5t137.5 -96t88 -154t30.5 -202.5v-27h-692q8 -133 86 -205.5t209 -72.5q176 0 381 131v-185zM741 561q-10 102 -73.5 162.5 t-159.5 60.5q-215 0 -256 -223h489zM412 1403h178l197 -348h-107l-178 241l-180 -241h-107z" />
<glyph unicode="&#xeb;" horiz-adv-x="999" d="M928 98q-182 -119 -391 -118q-111 0 -200 35.5t-150.5 101t-95.5 158t-34 202.5q0 102 33 188.5t92.5 147.5t142.5 95t185 34q98 0 178 -32.5t137.5 -96t88 -154t30.5 -202.5v-27h-692q8 -133 86 -205.5t209 -72.5q176 0 381 131v-185zM741 561q-10 102 -73.5 162.5 t-159.5 60.5q-215 0 -256 -223h489zM594 1208q0 41 29 71t69 30q41 0 71 -30t30 -71q0 -43 -30 -71.5t-71 -28.5t-69.5 28.5t-28.5 71.5zM213 1208q0 41 29 71t70 30t70.5 -30t29.5 -71q0 -43 -30 -71.5t-70 -28.5q-41 0 -70 28.5t-29 71.5z" />
<glyph unicode="&#xec;" horiz-adv-x="432" d="M123 924h184v-924h-184v924zM250 1055l-281 348h178l209 -348h-106z" />
<glyph unicode="&#xed;" horiz-adv-x="432" d="M123 924h184v-924h-184v924zM291 1403h178l-281 -348h-106z" />
<glyph unicode="&#xee;" horiz-adv-x="432" d="M123 924h184v-924h-184v924zM129 1403h178l197 -348h-107l-178 241l-180 -241h-107z" />
<glyph unicode="&#xef;" horiz-adv-x="432" d="M123 924h184v-924h-184v924zM311 1208q0 41 29 71t69 30q41 0 71 -30t30 -71q0 -43 -30 -71.5t-71 -28.5t-69.5 28.5t-28.5 71.5zM-70 1208q0 41 29 71t70 30t70.5 -30t29.5 -71q0 -43 -30 -71.5t-70 -28.5q-41 0 -70 28.5t-29 71.5z" />
<glyph unicode="&#xf0;" horiz-adv-x="1095" d="M250 440q0 -59 23.5 -111.5t63.5 -90t94 -60t116 -22.5q63 0 117.5 22.5t94.5 61.5t62.5 90t22.5 110q0 57 -23.5 109.5t-63.5 91.5t-94.5 61.5t-115.5 22.5t-115.5 -22.5t-94.5 -61.5t-63.5 -91.5t-23.5 -109.5zM854 764q-29 190 -137 336l-316 -92l-39 112l267 78 q-78 74 -160 133l111 90q59 -31 116.5 -72.5t112.5 -97.5l231 64l45 -111l-194 -55q84 -125 123 -264.5t39 -304.5q0 -143 -36 -254t-101.5 -187t-158.5 -114.5t-208 -38.5q-104 0 -193.5 35.5t-156 97t-104.5 144.5t-38 179q0 94 38 177t103.5 145.5t155.5 98.5t195 36 q176 0 305 -135z" />
<glyph unicode="&#xf1;" horiz-adv-x="1021" d="M117 924h184v-113q68 66 136.5 96.5t148.5 30.5q152 0 237.5 -86t85.5 -240v-612h-184v565q0 219 -195 219q-72 0 -125 -27.5t-104 -90.5v-666h-184v924zM803 1323q-25 -96 -76 -144.5t-123 -48.5q-18 0 -33.5 3.5t-31.5 7.5l-80 26q-25 8 -53 9q-68 0 -97 -64h-88 q43 186 199 186q35 0 59 -8l78 -28q35 -10 61 -11q72 0 97 72h88z" />
<glyph unicode="&#xf2;" horiz-adv-x="1095" d="M250 463q0 -66 23.5 -121t63.5 -97t94 -65.5t116 -23.5q61 0 115.5 24.5t94.5 65.5t63.5 97t23.5 120q0 63 -23.5 118.5t-63.5 97.5t-94.5 65.5t-115.5 23.5t-115.5 -23.5t-94.5 -65.5t-63.5 -97.5t-23.5 -118.5zM57 463q0 100 38 187t104.5 152.5t155.5 103.5t194 38 q98 0 186 -37t158 -104q72 -72 108.5 -157t36.5 -183q0 -96 -37.5 -185.5t-107.5 -156.5q-143 -139 -344 -139q-102 0 -192.5 37.5t-157 102t-104.5 153t-38 188.5zM580 1055l-281 348h178l209 -348h-106z" />
<glyph unicode="&#xf3;" horiz-adv-x="1095" d="M250 463q0 -66 23.5 -121t63.5 -97t94 -65.5t116 -23.5q61 0 115.5 24.5t94.5 65.5t63.5 97t23.5 120q0 63 -23.5 118.5t-63.5 97.5t-94.5 65.5t-115.5 23.5t-115.5 -23.5t-94.5 -65.5t-63.5 -97.5t-23.5 -118.5zM57 463q0 100 38 187t104.5 152.5t155.5 103.5t194 38 q98 0 186 -37t158 -104q72 -72 108.5 -157t36.5 -183q0 -96 -37.5 -185.5t-107.5 -156.5q-143 -139 -344 -139q-102 0 -192.5 37.5t-157 102t-104.5 153t-38 188.5zM621 1403h178l-281 -348h-106z" />
<glyph unicode="&#xf4;" horiz-adv-x="1095" d="M250 463q0 -66 23.5 -121t63.5 -97t94 -65.5t116 -23.5q61 0 115.5 24.5t94.5 65.5t63.5 97t23.5 120q0 63 -23.5 118.5t-63.5 97.5t-94.5 65.5t-115.5 23.5t-115.5 -23.5t-94.5 -65.5t-63.5 -97.5t-23.5 -118.5zM57 463q0 100 38 187t104.5 152.5t155.5 103.5t194 38 q98 0 186 -37t158 -104q72 -72 108.5 -157t36.5 -183q0 -96 -37.5 -185.5t-107.5 -156.5q-143 -139 -344 -139q-102 0 -192.5 37.5t-157 102t-104.5 153t-38 188.5zM459 1403h178l197 -348h-107l-178 241l-180 -241h-107z" />
<glyph unicode="&#xf5;" horiz-adv-x="1095" d="M250 463q0 -66 23.5 -121t63.5 -97t94 -65.5t116 -23.5q61 0 115.5 24.5t94.5 65.5t63.5 97t23.5 120q0 63 -23.5 118.5t-63.5 97.5t-94.5 65.5t-115.5 23.5t-115.5 -23.5t-94.5 -65.5t-63.5 -97.5t-23.5 -118.5zM57 463q0 100 38 187t104.5 152.5t155.5 103.5t194 38 q98 0 186 -37t158 -104q72 -72 108.5 -157t36.5 -183q0 -96 -37.5 -185.5t-107.5 -156.5q-143 -139 -344 -139q-102 0 -192.5 37.5t-157 102t-104.5 153t-38 188.5zM840 1323q-25 -96 -76 -144.5t-123 -48.5q-18 0 -33.5 3.5t-31.5 7.5l-80 26q-25 8 -53 9q-68 0 -97 -64 h-88q43 186 199 186q35 0 59 -8l78 -28q35 -10 61 -11q72 0 97 72h88z" />
<glyph unicode="&#xf6;" horiz-adv-x="1095" d="M250 463q0 -66 23.5 -121t63.5 -97t94 -65.5t116 -23.5q61 0 115.5 24.5t94.5 65.5t63.5 97t23.5 120q0 63 -23.5 118.5t-63.5 97.5t-94.5 65.5t-115.5 23.5t-115.5 -23.5t-94.5 -65.5t-63.5 -97.5t-23.5 -118.5zM57 463q0 100 38 187t104.5 152.5t155.5 103.5t194 38 q98 0 186 -37t158 -104q72 -72 108.5 -157t36.5 -183q0 -96 -37.5 -185.5t-107.5 -156.5q-143 -139 -344 -139q-102 0 -192.5 37.5t-157 102t-104.5 153t-38 188.5zM641 1208q0 41 29 71t69 30q41 0 71 -30t30 -71q0 -43 -30 -71.5t-71 -28.5t-69.5 28.5t-28.5 71.5z M260 1208q0 41 29 71t70 30t70.5 -30t29.5 -71q0 -43 -30 -71.5t-70 -28.5q-41 0 -70 28.5t-29 71.5z" />
<glyph unicode="&#xf7;" horiz-adv-x="1705" d="M854 367q51 0 88 -36t37 -89q0 -51 -36 -88t-89 -37t-89 35.5t-36 89.5q0 53 37 89t88 36zM1452 541h-1198v139h1198v-139zM854 1106q51 0 88 -37t37 -90q0 -51 -36 -88t-89 -37t-89 36t-36 89t37 90t88 37z" />
<glyph unicode="&#xf8;" horiz-adv-x="1095" d="M160 166q-102 131 -103 297q0 100 37 187t103.5 151.5t156.5 102.5t197 38q113 0 187.5 -34t111.5 -66l115 110l90 -94l-115 -113q51 -66 74.5 -130t23.5 -142q0 -104 -37.5 -194.5t-105.5 -156t-160 -103t-203 -37.5q-80 0 -146.5 22.5t-129.5 71.5l-123 -119l-92 98z M723 707q-31 29 -74 45t-102 16q-61 0 -116.5 -24.5t-95.5 -67.5t-63.5 -98.5t-23.5 -116.5q0 -94 49 -164zM381 211q39 -31 78 -44t82 -13q66 0 122 25.5t98 70.5t65.5 102.5t23.5 122.5q0 74 -49 139z" />
<glyph unicode="&#xf9;" horiz-adv-x="1021" d="M721 113q-68 -66 -136.5 -96.5t-148.5 -30.5q-152 0 -238.5 86t-86.5 239v613h186v-566q0 -219 195 -219q72 0 125 28t104 91v666h184v-924h-184v113zM543 1055l-281 348h178l209 -348h-106z" />
<glyph unicode="&#xfa;" horiz-adv-x="1021" d="M721 113q-68 -66 -136.5 -96.5t-148.5 -30.5q-152 0 -238.5 86t-86.5 239v613h186v-566q0 -219 195 -219q72 0 125 28t104 91v666h184v-924h-184v113zM584 1403h178l-281 -348h-106z" />
<glyph unicode="&#xfb;" horiz-adv-x="1021" d="M721 113q-68 -66 -136.5 -96.5t-148.5 -30.5q-152 0 -238.5 86t-86.5 239v613h186v-566q0 -219 195 -219q72 0 125 28t104 91v666h184v-924h-184v113zM422 1403h178l197 -348h-107l-178 241l-180 -241h-107z" />
<glyph unicode="&#xfc;" horiz-adv-x="1021" d="M721 113q-68 -66 -136.5 -96.5t-148.5 -30.5q-152 0 -238.5 86t-86.5 239v613h186v-566q0 -219 195 -219q72 0 125 28t104 91v666h184v-924h-184v113zM604 1208q0 41 29 71t69 30q41 0 71 -30t30 -71q0 -43 -30 -71.5t-71 -28.5t-69.5 28.5t-28.5 71.5zM223 1208 q0 41 29 71t70 30t70.5 -30t29.5 -71q0 -43 -30 -71.5t-70 -28.5q-41 0 -70 28.5t-29 71.5z" />
<glyph unicode="&#xfd;" horiz-adv-x="909" d="M-29 924h205l285 -541l266 541h201l-686 -1389h-201l319 647zM529 1403h178l-281 -348h-106z" />
<glyph unicode="&#xfe;" horiz-adv-x="1058" d="M307 203q88 -63 191 -64q141 0 222 85t81 239t-81 237.5t-222 83.5q-102 0 -191 -63v-518zM121 1399h186v-527q102 72 238 72q98 0 182 -35t143.5 -98t93 -152.5t33.5 -195.5q0 -109 -33.5 -197t-93 -151.5t-143.5 -98t-182 -34.5q-70 0 -127.5 16t-110.5 53v-516h-186 v1864z" />
<glyph unicode="&#xff;" horiz-adv-x="909" d="M-29 924h205l285 -541l266 541h201l-686 -1389h-201l319 647zM549 1208q0 41 29 71t69 30q41 0 71 -30t30 -71q0 -43 -30 -71.5t-71 -28.5t-69.5 28.5t-28.5 71.5zM168 1208q0 41 29 71t70 30t70.5 -30t29.5 -71q0 -43 -30 -71.5t-70 -28.5q-41 0 -70 28.5t-29 71.5z" />
<glyph unicode="&#x131;" horiz-adv-x="432" d="M123 924h184v-924h-184v924z" />
<glyph unicode="&#x152;" horiz-adv-x="2017" d="M1053 1223h-88q-139 0 -243 -13.5t-181 -56.5q-111 -61 -172.5 -178t-61.5 -273t61.5 -273.5t172.5 -178.5q78 -43 181 -56.5t243 -13.5h88v1043zM932 0q-74 0 -143.5 2t-134 11.5t-126 28.5t-118.5 54q-147 88 -229.5 243t-82.5 359q0 205 81 359.5t231 245.5 q57 35 117.5 54t125 28.5t134 11.5t143.5 2h964v-178h-645v-424h627v-181h-627v-436h666v-180h-911h-72z" />
<glyph unicode="&#x153;" horiz-adv-x="1787" d="M250 463q0 -66 23.5 -121t63.5 -97t94 -65.5t116 -23.5q61 0 115.5 24.5t94.5 65.5t63.5 97t23.5 120q0 63 -23.5 118.5t-63.5 97.5t-94.5 65.5t-115.5 23.5t-115.5 -23.5t-94.5 -65.5t-63.5 -97.5t-23.5 -118.5zM1714 98q-92 -59 -189.5 -87.5t-205.5 -28.5 q-129 0 -219 43t-166 143q-84 -94 -176 -140t-207 -46q-104 0 -194.5 37.5t-157 102t-104.5 152.5t-38 189q0 100 38 187t104.5 152.5t158 103.5t195.5 38q242 0 377 -182q66 96 155 140t211 44q199 0 317 -128t118 -363v-23h-693q8 -133 87 -206.5t210 -73.5 q88 0 181.5 33.5t197.5 99.5v-187zM1530 565q-10 102 -74.5 162.5t-161.5 60.5q-215 0 -256 -223h492z" />
<glyph unicode="&#x178;" horiz-adv-x="1193" d="M485 700l-540 699h237l408 -531l418 531h241l-561 -709v-690h-203v700zM690 1687q0 41 29 71t69 30q41 0 71 -30t30 -71q0 -43 -30 -71.5t-71 -28.5t-69.5 28.5t-28.5 71.5zM309 1687q0 41 29 71t70 30t70.5 -30t29.5 -71q0 -43 -30 -71.5t-70 -28.5q-41 0 -70 28.5 t-29 71.5z" />
<glyph unicode="&#x2c6;" horiz-adv-x="1024" d="M422 1403h178l197 -348h-107l-178 241l-180 -241h-107z" />
<glyph unicode="&#x2dc;" horiz-adv-x="1024" d="M803 1323q-25 -96 -76 -144.5t-123 -48.5q-18 0 -33.5 3.5t-31.5 7.5l-80 26q-25 8 -53 9q-68 0 -97 -64h-88q43 186 199 186q35 0 59 -8l78 -28q35 -10 61 -11q72 0 97 72h88z" />
<glyph unicode="&#x2000;" horiz-adv-x="978" />
<glyph unicode="&#x2001;" horiz-adv-x="1959" />
<glyph unicode="&#x2002;" horiz-adv-x="978" />
<glyph unicode="&#x2003;" horiz-adv-x="1959" />
<glyph unicode="&#x2004;" horiz-adv-x="653" />
<glyph unicode="&#x2005;" horiz-adv-x="489" />
<glyph unicode="&#x2006;" horiz-adv-x="325" />
<glyph unicode="&#x2007;" horiz-adv-x="325" />
<glyph unicode="&#x2008;" horiz-adv-x="243" />
<glyph unicode="&#x2009;" horiz-adv-x="391" />
<glyph unicode="&#x200a;" horiz-adv-x="108" />
<glyph unicode="&#x2010;" horiz-adv-x="692" d="M84 545h524v-166h-524v166z" />
<glyph unicode="&#x2011;" horiz-adv-x="692" d="M84 545h524v-166h-524v166z" />
<glyph unicode="&#x2012;" horiz-adv-x="692" d="M84 545h524v-166h-524v166z" />
<glyph unicode="&#x2013;" horiz-adv-x="1024" d="M1024 401h-1024v123h1024v-123z" />
<glyph unicode="&#x2014;" horiz-adv-x="2048" d="M0 524h2048v-123h-2048v123z" />
<glyph unicode="&#x2018;" horiz-adv-x="483" d="M279 1174q88 -45 88 -125q0 -51 -33 -85t-80 -34q-59 0 -98 50t-39 140q0 109 61.5 185.5t177.5 115.5l2 -37q-80 -68 -79 -184v-26z" />
<glyph unicode="&#x2019;" horiz-adv-x="483" d="M205 1180q-88 45 -88 125q0 51 32.5 84.5t79.5 33.5q59 0 98.5 -50t39.5 -140q0 -109 -61.5 -186.5t-178.5 -116.5l-2 37q80 68 80 186v27z" />
<glyph unicode="&#x201a;" horiz-adv-x="483" d="M205 -20q-88 45 -88 124q0 51 32.5 85t79.5 34q59 0 98.5 -50t39.5 -140q0 -109 -61.5 -186.5t-178.5 -116.5l-2 37q80 68 80 186v27z" />
<glyph unicode="&#x201c;" horiz-adv-x="880" d="M674 1171q88 -45 88 -122q0 -51 -33 -85t-80 -34q-59 0 -98 49t-39 139q0 109 61.5 186.5t178.5 116.5l2 -37q-80 -68 -80 -186v-27zM279 1171q88 -45 88 -122q0 -51 -33 -85t-80 -34q-59 0 -98 49t-39 139q0 109 61.5 186.5t177.5 116.5l2 -37q-80 -68 -79 -186v-27z " />
<glyph unicode="&#x201d;" horiz-adv-x="880" d="M600 1178q-88 45 -88 125q0 51 34 84.5t81 33.5q59 0 97 -50t38 -140q0 -109 -61.5 -185.5t-178.5 -115.5l-2 37q80 68 80 184v27zM205 1178q-88 45 -88 125q0 51 32.5 84.5t79.5 33.5q59 0 98.5 -50t39.5 -140q0 -109 -61.5 -185.5t-178.5 -115.5l-2 37q80 68 80 184v27 z" />
<glyph unicode="&#x201e;" horiz-adv-x="880" d="M600 -20q-88 45 -88 124q0 51 34 85t81 34q59 0 97 -50t38 -140q0 -109 -61.5 -186.5t-178.5 -116.5l-2 37q80 68 80 186v27zM205 -20q-88 45 -88 124q0 51 32.5 85t79.5 34q59 0 98.5 -50t39.5 -140q0 -109 -61.5 -186.5t-178.5 -116.5l-2 37q80 68 80 186v27z" />
<glyph unicode="&#x2022;" horiz-adv-x="1208" d="M307 762q0 61 23.5 114.5t63.5 93.5t94.5 63.5t115.5 23.5t114.5 -23.5t93.5 -63.5t63.5 -93.5t23.5 -114.5t-23.5 -114.5t-63.5 -94.5t-94 -64.5t-116 -23.5q-61 0 -115.5 23.5t-94.5 63.5t-62.5 94.5t-22.5 115.5z" />
<glyph unicode="&#x2026;" horiz-adv-x="2048" d="M1587 104q0 51 35 86t86 35t86 -34.5t35 -86.5q0 -51 -35 -85.5t-86 -34.5t-86 34.5t-35 85.5zM903 104q0 51 35 86t86 35t86 -34.5t35 -86.5q0 -51 -35 -85.5t-86 -34.5t-86 34.5t-35 85.5zM221 104q0 51 35 86t86 35t86 -34.5t35 -86.5q0 -51 -35 -85.5t-86 -34.5 t-86 34.5t-35 85.5z" />
<glyph unicode="&#x202f;" horiz-adv-x="391" />
<glyph unicode="&#x2039;" horiz-adv-x="526" d="M63 479l240 301h158l-234 -301l234 -317h-158z" />
<glyph unicode="&#x203a;" horiz-adv-x="526" d="M63 162l234 317l-234 301h158l240 -301l-240 -317h-158z" />
<glyph unicode="&#x205f;" horiz-adv-x="489" />
<glyph unicode="&#x2122;" horiz-adv-x="1705" d="M1114 1073l141 385h150v-538h-98v444l-166 -444h-56l-174 444v-444h-98v538h150zM694 1378h-172v-458h-108v458h-172v80h452v-80z" />
<glyph unicode="&#xe000;" horiz-adv-x="925" d="M0 925h925v-925h-925v925z" />
<glyph unicode="&#xfb01;" horiz-adv-x="974" d="M154 0v764h-121v160h121v110q0 186 94 282.5t268 96.5q160 0 250 -87t92 -241h-186q-6 78 -47 120t-109 42q-96 0 -134 -59.5t-38 -179.5v-84h123v-160h-123v-764h-190zM674 924h184v-924h-184v924z" />
<glyph unicode="&#xfb02;" horiz-adv-x="974" d="M674 1399h184v-1399h-184v1399zM156 0v764h-121v160h121v84q0 86 6 150.5t39 117.5q41 66 109.5 101.5t156.5 35.5q53 0 149 -22v-162q-76 16 -116 16q-90 0 -122 -50t-32 -159v-112h123v-160h-123v-764h-190z" />
<glyph unicode="&#xfb03;" horiz-adv-x="1513" d="M1192 1196q0 45 30.5 74.5t73.5 29.5t73.5 -29.5t30.5 -74.5t-30.5 -74.5t-73.5 -29.5t-73.5 29.5t-30.5 74.5zM1204 924h184v-924h-184v924zM701 0v764h-121v160h121v84q0 86 6 150.5t39 117.5q41 66 110.5 101.5t157.5 35.5q29 0 64.5 -6t83.5 -16v-162q-76 16 -117 16 q-90 0 -122 -50t-32 -159v-112h123v-160h-123v-764h-190zM160 0v764h-121v160h121v84q0 86 6 150.5t39 117.5q41 66 110.5 101.5t157.5 35.5q29 0 64.5 -6t83.5 -16v-162q-76 16 -117 16q-90 0 -122 -50t-32 -159v-112h123v-160h-123v-764h-190z" />
<glyph unicode="&#xfb04;" horiz-adv-x="1513" d="M1204 1399h184v-1399h-184v1399zM701 0v764h-121v160h121v84q0 86 6 150.5t39 117.5q41 66 110.5 101.5t157.5 35.5q29 0 64.5 -6t83.5 -16v-162q-76 16 -117 16q-90 0 -122 -50t-32 -159v-112h123v-160h-123v-764h-190zM160 0v764h-121v160h121v84q0 86 6 150.5 t39 117.5q41 66 110.5 101.5t157.5 35.5q29 0 64.5 -6t83.5 -16v-162q-76 16 -117 16q-90 0 -122 -50t-32 -159v-112h123v-160h-123v-764h-190z" />
</font>
</defs>
</svg>
